# xmcd CD database file
#
# Track frame offsets:
#	150
#	17132
#	30852
#	46392
#	61980
#	81170
#	94857
#	113170
#	130197
#	145812
#	165000
#	180322
#
# Disc length: 2521 seconds
#
# Revision: 3
# Processed by: cddbd v1.5.2PL0 Copyright (c) Steve Scherf et al.
# Submitted via: CDex 1.51
#
DISCID=8909d70c
DTITLE=Various Artist - Volle Pulle
DYEAR=1992
DGENRE=Schlager
TTITLE0=Franz Von Sinnen - Das Ganze Leben Ist Ein Quiz
TTITLE1=Rudi Rambo Und Die Rockers - Beinhart
TTITLE2=Freddy Freibier Und Die Partybienen - Bauernregeln
TTITLE3=Medium Terzett - Hey Papa Hol Den Hammer
TTITLE4=Egon Helmhagen Und Birgitt - Bla, Bla, Bla
TTITLE5=Freddy freibier Und Die Partybienen - Lieder Für Große Kinder
TTITLE6=Franz Von Sinnen - Ich Bin Der Martin, Ne?
TTITLE7=Freddy Freibier und Die Partybienen - Wir Sind Die Champions
TTITLE8=Chris Wolff - Alles Paletti
TTITLE9=Fernando Express - Fiesta Americana
TTITLE10=Medium Terzett - In Der Schwarzwaldklinik
TTITLE11=Freddy Freibier Und Die Partybienen - Resi I Hol Di Mit`n Traktor Ab
EXTD=YEAR: 1992
EXTT0=
EXTT1=
EXTT2=
EXTT3=
EXTT4=
EXTT5=
EXTT6=
EXTT7=
EXTT8=
EXTT9=
EXTT10=
EXTT11=
PLAYORDER=
